<svg width="20" height="20" viewBox="0 0 20 20" fill="none" xmlns="http://www.w3.org/2000/svg">
<path d="M10 20C15.5228 20 20 15.5228 20 10C20 4.47715 15.5228 0 10 0C4.47715 0 0 4.47715 0 10C0 15.5228 4.47715 20 10 20Z" fill="#D4D4D4"/>
<path d="M13.4279 5H6.57213C5.70418 5 5 5.70408 5 6.57339V13.4281C5 14.2959 5.70418 15 6.57213 15H13.4279C14.2958 15 15 14.2959 15 13.4281V6.57339C15 5.70408 14.2958 5 13.4279 5ZM12.3647 6.15659L13.6213 6.15362H13.6242C13.7448 6.15213 13.8431 6.25037 13.8431 6.36946V7.63025C13.8431 7.75082 13.7463 7.84757 13.6257 7.84757L12.3707 7.85204C12.2501 7.85204 12.1533 7.75528 12.1533 7.6362L12.1489 6.37541C12.1474 6.25484 12.2442 6.15808 12.3647 6.15659ZM8.46732 9.14111C8.50007 9.08455 8.53432 9.02798 8.57302 8.9744C8.89311 8.53081 9.41268 8.24055 9.99926 8.24055C10.5873 8.24055 11.1069 8.53081 11.427 8.9744C11.4657 9.02798 11.4999 9.08455 11.5327 9.1426C11.6756 9.39565 11.7605 9.6889 11.7605 10C11.7605 10.9705 10.9699 11.7595 9.99926 11.7595C9.02858 11.7595 8.23954 10.9705 8.23954 10C8.23939 9.6889 8.32291 9.39565 8.46732 9.14111ZM14.0264 13.0679C14.0264 13.5963 13.5961 14.0265 13.0676 14.0265H6.93241C6.4039 14.0265 5.97365 13.5963 5.97365 13.0679V8.9744H7.46688C7.42966 9.0652 7.3969 9.16046 7.37011 9.25573C7.30162 9.49241 7.26589 9.74248 7.26589 10C7.26589 11.5079 8.49263 12.7344 9.99926 12.7344C11.5074 12.7344 12.7341 11.5079 12.7341 10C12.7341 9.74248 12.6969 9.49241 12.6299 9.25573C12.6016 9.16046 12.5703 9.0652 12.5331 8.9744H14.0264V13.0679V13.0679Z" fill="white" style="mix-blend-mode:difference"/>
</svg>
