<svg width="1190" height="504" viewBox="0 0 1190 504" fill="none" xmlns="http://www.w3.org/2000/svg">
<g clip-path="url(#clip0)">
<path d="M201.304 324.308V391H38.6298V324.308H78.7349V142.258H42.2347V75.566H197.699V142.258H161.198V324.308H201.304Z" fill="white"/>
<path d="M321.633 351.796L303.608 391H217.54V379.734L362.189 72.4117H400.041L543.338 379.734V391H458.171L439.696 351.796H321.633ZM348.22 282.851H413.56L380.664 206.696L348.22 282.851Z" fill="white"/>
<path d="M634.902 294.117C634.902 299.524 636.254 304.331 638.958 308.537C641.962 312.442 645.717 315.746 650.223 318.45C655.03 321.154 660.437 323.257 666.445 324.759C672.454 325.961 678.612 326.561 684.921 326.561C690.629 326.561 696.337 325.961 702.044 324.759C708.053 323.257 713.31 321.304 717.816 318.901C722.322 316.197 725.927 313.043 728.631 309.438C731.635 305.833 733.137 301.627 733.137 296.82C733.137 289.31 731.185 283.452 727.279 279.246C723.374 275.04 718.417 271.886 712.409 269.783C706.701 267.38 700.392 265.878 693.483 265.277C686.874 264.676 680.715 264.226 675.007 263.925C660.587 263.024 646.468 260.771 632.649 257.166C618.83 253.561 606.513 248.153 595.698 240.944C584.883 233.734 576.171 224.571 569.562 213.456C562.953 202.04 559.649 188.071 559.649 171.548C559.649 154.425 562.953 139.404 569.562 126.486C576.472 113.568 585.484 102.904 596.599 94.492C608.015 85.78 621.083 79.3212 635.803 75.1154C650.524 70.6092 665.995 68.3561 682.217 68.3561C697.538 68.3561 712.409 70.6092 726.829 75.1154C741.549 79.3212 754.617 85.78 766.033 94.492C777.448 102.904 786.611 113.568 793.52 126.486C800.43 139.404 803.734 154.425 803.434 171.548H726.378C726.078 160.733 721.571 152.922 712.859 148.116C704.448 143.309 694.684 140.906 683.569 140.906C679.063 140.906 674.256 141.357 669.149 142.258C664.042 142.859 659.386 144.21 655.18 146.313C650.974 148.416 647.519 151.42 644.816 155.326C642.112 158.931 640.76 163.737 640.76 169.746C640.76 180.26 644.966 187.47 653.378 191.375C661.789 194.98 673.655 197.534 688.977 199.036C705.8 200.538 721.722 202.941 736.742 206.246C752.063 209.25 765.432 214.357 776.847 221.567C788.564 228.777 797.726 238.39 804.335 250.407C811.245 262.423 814.7 278.045 814.7 297.271C814.7 313.794 810.944 328.364 803.434 340.981C796.224 353.599 786.461 364.113 774.144 372.525C762.127 380.936 748.458 387.245 733.137 391.451C717.816 395.957 702.044 398.21 685.822 398.21C668.999 398.21 652.777 396.107 637.155 391.901C621.534 387.695 607.715 381.387 595.698 372.975C583.682 364.263 574.068 353.448 566.858 340.531C559.649 327.312 556.194 311.841 556.494 294.117H634.902Z" fill="white"/>
<path d="M929.794 351.796L911.769 391H825.701V379.734L970.35 72.4117H1008.2L1151.5 379.734V391H1066.33L1047.86 351.796H929.794ZM956.381 282.851H1021.72L988.825 206.696L956.381 282.851Z" fill="white"/>
<path d="M113.68 32.48H7.5V136.61" stroke="white" stroke-width="15" stroke-miterlimit="10"/>
<path d="M1181.86 317.44V426.74H1073.56" stroke="white" stroke-width="15" stroke-miterlimit="10"/>
</g>
<defs>
<clipPath id="clip0">
<rect width="1189.36" height="503.8" fill="white"/>
</clipPath>
</defs>
</svg>
